HIERARCHY
ROOT Hips
{
	OFFSET 0.0000 0.0000 0.0000
	CHANNELS 6 Xposition Yposition Zposition Zrotation Xrotation Yrotation
	JOINT Spine1
	{
		OFFSET -0.0137 5.0038 -0.0537
		CHANNELS 3 Zrotation Xrotation Yrotation
		JOINT Spine2
		{
			OFFSET -0.0000 7.1253 -0.0298
			CHANNELS 3 Zrotation Xrotation Yrotation
			JOINT Chest
			{
				OFFSET -0.0000 7.5501 -0.8160
				CHANNELS 3 Zrotation Xrotation Yrotation
				JOINT Neck1
				{
					OFFSET -0.1817 26.3113 -0.5533
					CHANNELS 3 Zrotation Xrotation Yrotation
					JOINT Neck2
					{
						OFFSET -0.0000 7.7094 2.3026
						CHANNELS 3 Zrotation Xrotation Yrotation
						JOINT Head
						{
							OFFSET -0.0000 6.1289 1.9537
							CHANNELS 3 Zrotation Xrotation Yrotation
							JOINT Jaw
							{
								OFFSET 0.0026 0.4756 3.0949
								CHANNELS 3 Zrotation Xrotation Yrotation
								End Site
								{
									OFFSET 0.0 1.0 0.0
								}
							}
							JOINT LeftEye
							{
								OFFSET 3.2064 5.3802 7.5869
								CHANNELS 3 Zrotation Xrotation Yrotation
								End Site
								{
									OFFSET 0.0 1.0 0.0
								}
							}
							JOINT RightEye
							{
								OFFSET -3.2224 5.3619 7.5582
								CHANNELS 3 Zrotation Xrotation Yrotation
								End Site
								{
									OFFSET 0.0 1.0 0.0
								}
							}
						}
					}
				}
				JOINT LeftShoulder
				{
					OFFSET 1.6217 23.2372 5.1134
					CHANNELS 3 Zrotation Xrotation Yrotation
					JOINT LeftArm
					{
						OFFSET 14.9198 0.0000 -5.5023
						CHANNELS 3 Zrotation Xrotation Yrotation
						JOINT LeftForeArm
						{
							OFFSET 28.7393 0.0000 -0.0026
							CHANNELS 3 Zrotation Xrotation Yrotation
							JOINT LeftHand
							{
								OFFSET 27.0940 -0.0000 0.0026
								CHANNELS 3 Zrotation Xrotation Yrotation
								JOINT LeftHandThumbEnd
								{
									OFFSET 12.2686 -3.2202 4.8331
									CHANNELS 3 Zrotation Xrotation Yrotation
									End Site
									{
										OFFSET 0.0 1.0 0.0
									}
								}
								JOINT LeftHandMiddleEnd
								{
									OFFSET 19.0120 -0.3129 -0.0340
									CHANNELS 3 Zrotation Xrotation Yrotation
									End Site
									{
										OFFSET 0.0 1.0 0.0
									}
								}
							}
						}
					}
				}
				JOINT RightShoulder
				{
					OFFSET -1.3801 23.1803 5.2142
					CHANNELS 3 Zrotation Xrotation Yrotation
					JOINT RightArm
					{
						OFFSET -15.0372 0.0000 -5.5456
						CHANNELS 3 Zrotation Xrotation Yrotation
						JOINT RightForeArm
						{
							OFFSET -28.7366 0.0000 -0.0026
							CHANNELS 3 Zrotation Xrotation Yrotation
							JOINT RightHand
							{
								OFFSET -27.1336 -0.0000 0.0026
								CHANNELS 3 Zrotation Xrotation Yrotation
								JOINT RightHandThumbEnd
								{
									OFFSET -12.2642 -3.2115 4.8040
									CHANNELS 3 Zrotation Xrotation Yrotation
									End Site
									{
										OFFSET 0.0 1.0 0.0
									}
								}
								JOINT RightHandMiddleEnd
								{
									OFFSET -19.0006 -0.3066 -0.0316
									CHANNELS 3 Zrotation Xrotation Yrotation
									End Site
									{
										OFFSET 0.0 1.0 0.0
									}
								}
							}
						}
					}
				}
			}
		}
	}
	JOINT LeftLeg
	{
		OFFSET 10.0432 -8.4345 2.5957
		CHANNELS 3 Zrotation Xrotation Yrotation
		JOINT LeftShin
		{
			OFFSET -0.0000 -43.2218 -0.8029
			CHANNELS 3 Zrotation Xrotation Yrotation
			JOINT LeftFoot
			{
				OFFSET 0.0000 -42.1551 -3.4815
				CHANNELS 3 Zrotation Xrotation Yrotation
				JOINT LeftToeBase
				{
					OFFSET 0.0000 -5.0595 13.2315
					CHANNELS 3 Zrotation Xrotation Yrotation
					End Site
					{
						OFFSET 0.0 1.0 0.0
					}
				}
			}
		}
	}
	JOINT RightLeg
	{
		OFFSET -10.0473 -8.2953 2.6203
		CHANNELS 3 Zrotation Xrotation Yrotation
		JOINT RightShin
		{
			OFFSET 0.0000 -43.3622 -0.8056
			CHANNELS 3 Zrotation Xrotation Yrotation
			JOINT RightFoot
			{
				OFFSET 0.0000 -42.1174 -3.4784
				CHANNELS 3 Zrotation Xrotation Yrotation
				JOINT RightToeBase
				{
					OFFSET -0.0000 -5.0796 13.2842
					CHANNELS 3 Zrotation Xrotation Yrotation
					End Site
					{
						OFFSET 0.0 1.0 0.0
					}
				}
			}
		}
	}
}
MOTION
Frames: 6
Frame Time: 0.033333
-5.4967 88.1315 4.9640 4.1648 3.5205 0.0001 -1.1968 5.3440 -0.2523 -1.1149 -2.2663 -0.4077 -0.2044 10.5297 -2.7516 14.7583 4.7995 -1.9281 -4.1143 -4.1953 -11.1894 1.0293 -13.5151 -13.6568 0.0360 -0.0411 -0.1751 0.7375 -10.6356 -4.0294 -0.6524 -10.6992 3.6423 0.1297 8.0439 -10.8176 -29.7710 -17.1720 -5.8985 -0.1218 0.1426 -71.6453 18.7035 0.5841 18.2786 -15.4183 11.4399 16.5584 -59.1985 1.6643 2.6850 12.5659 6.5873 15.0999 48.1620 -29.6031 -41.5667 1.9428 -0.9638 80.1616 -27.5146 2.1394 17.4462 15.1553 7.5700 -17.0274 50.8188 -3.8951 -5.5741 30.4281 -15.1878 -3.4877 -0.4668 38.3424 -1.9306 -11.1497 2.2425 5.7816 1.7654 -3.7871 -1.9326 -25.3947 -44.6112 -11.4156 0.6156 44.9779 1.0800 15.3533 -1.2774 -5.1817 -1.4485 0.3904 0.9389
-2.8156 87.5011 3.7195 3.3242 3.8025 0.4684 -1.0557 5.3415 -0.1769 -1.0633 -2.3104 -0.2789 0.1787 10.4380 -2.9447 15.5132 4.5719 -2.0325 -4.3015 -4.2073 -11.1178 0.8378 -13.5723 -13.7831 0.0281 -0.0694 -0.1928 0.7445 -10.6754 -4.0554 -0.6753 -10.7270 3.6335 0.2203 8.1253 -11.3903 -28.7190 -17.3949 -7.4208 0.4109 0.3361 -70.1976 18.1899 -0.0944 17.9930 -15.1170 11.4278 16.4503 -59.3327 1.7498 2.5028 12.7600 6.2064 15.0317 47.1302 -30.8015 -40.8769 1.5611 -0.7657 78.7261 -27.3887 2.7367 17.3668 15.0273 7.5707 -17.0667 50.7435 -3.8434 -5.4876 31.1133 -14.3999 -4.6944 -0.3975 38.0847 -2.1437 -17.1933 1.3487 2.6205 1.8530 -6.1810 -2.1346 -26.2707 -44.2761 -11.1169 0.5495 41.9538 1.0572 16.2000 1.6255 -5.5807 -1.4508 0.6850 0.8816
0.6521 86.8709 2.1474 2.3289 4.1445 0.5239 -0.7701 5.4071 -0.0835 -0.9572 -2.3650 -0.2234 0.8468 10.4734 -2.9068 16.1381 4.5359 -2.0998 -4.4370 -4.2334 -11.1682 0.6128 -14.1591 -13.7156 0.0206 -0.0759 -0.1736 0.7383 -10.6380 -4.0257 -0.6850 -10.6637 3.6438 0.0974 8.3112 -12.0405 -28.3689 -18.2309 -8.4758 0.4740 0.3299 -69.2496 17.7366 -0.4394 18.0942 -14.9377 11.3777 16.4074 -59.4049 1.7792 2.5228 12.7289 5.9801 15.0219 46.0463 -32.6130 -39.8625 1.3576 -0.3652 77.2649 -27.1675 3.7585 17.4097 15.0546 7.5575 -17.0167 50.5945 -3.7721 -5.4852 31.1472 -15.3312 -4.5246 -0.3118 39.3113 -2.0113 -24.6622 -3.5622 0.1313 1.9276 -8.2503 -2.2830 -26.8277 -43.4543 -11.0578 0.5238 37.1655 1.0991 16.6152 5.2738 -5.9784 -1.4643 0.5036 0.8036
4.4716 86.5349 0.3984 1.2506 4.4338 0.0261 -0.4984 5.5735 0.1350 -0.7706 -2.3367 -0.3315 1.7079 10.7122 -2.5781 16.7874 4.4958 -2.1366 -4.6476 -4.2571 -10.9095 0.4060 -14.9317 -13.7117 0.0070 -0.0578 -0.0927 0.7135 -10.6353 -3.9474 -0.6916 -10.6350 3.7286 -0.1329 8.8404 -12.4784 -28.3058 -19.5710 -9.1043 0.2380 0.4484 -68.9966 17.6007 -0.5419 18.2509 -14.9643 11.1887 16.2603 -59.2814 1.7316 2.5394 12.7629 5.5935 15.2669 45.2345 -35.0812 -39.3392 1.7248 0.0005 76.0823 -26.8984 4.7692 18.1806 15.1950 7.4766 -17.0931 50.5961 -3.7800 -5.5101 30.5604 -18.2774 -2.6224 -0.4214 42.1561 -1.7991 -28.6158 -9.0942 -0.0594 1.8751 -7.0000 -2.2312 -27.1352 -41.5637 -10.5570 0.5814 30.2842 1.2761 15.4224 9.1757 -7.2176 -1.4911 -0.5004 0.7490
8.0885 86.5154 -1.2444 0.2734 4.4159 -0.7546 -0.4253 5.7951 0.4126 -0.5919 -2.2245 -0.4177 2.5738 10.9918 -2.1895 17.2251 4.8314 -2.2084 -4.5080 -4.2895 -10.6885 0.1384 -15.3364 -13.3636 0.0115 -0.0589 -0.0727 0.6990 -10.6168 -3.9168 -0.6681 -10.5985 3.7336 -0.1186 8.9870 -12.8934 -28.6232 -19.9748 -9.5221 0.4381 0.4671 -68.9578 17.4809 -0.2176 18.5598 -15.0033 11.1678 16.3052 -59.3339 1.7123 2.5575 13.0375 5.4743 15.5098 44.6112 -37.5296 -38.5170 2.0740 0.2088 74.9624 -26.5730 5.9888 18.8669 15.0350 7.4566 -17.1437 50.6669 -3.7563 -5.5656 29.5867 -21.1657 -0.5365 -0.4479 45.2611 -1.5283 -29.0142 -13.5313 0.5191 1.8004 -5.0594 -2.0794 -27.2650 -38.9138 -9.6317 0.3979 23.3309 1.0783 12.3618 10.0135 -8.3574 -1.4887 -1.5665 0.8384
11.3358 86.4643 -2.7551 -0.6710 4.0884 -1.5536 -0.4728 6.0658 0.5491 -0.4195 -2.1080 -0.3819 3.3387 11.2250 -1.6725 17.4073 5.3187 -2.2327 -4.2438 -4.3062 -10.5295 -0.1030 -15.5467 -12.8359 0.0116 -0.0585 -0.0503 0.6909 -10.6484 -3.8975 -0.6616 -10.6155 3.7590 0.0288 9.1399 -13.0548 -28.6428 -19.8297 -10.0030 0.9493 0.4073 -69.2981 16.9172 0.1921 19.2653 -15.0612 11.2416 16.3906 -59.6321 1.7614 2.5751 13.2119 5.6020 15.7291 44.4052 -39.0359 -37.6959 1.9123 0.3563 74.1763 -26.2116 6.7341 19.5117 14.8207 7.5482 -17.2421 50.9090 -3.7027 -5.6291 28.5235 -23.0184 1.2439 -0.4313 47.4669 -1.2916 -28.6400 -17.3191 1.7968 1.7348 -2.7818 -1.9257 -26.9224 -37.1389 -9.1152 0.1739 19.6372 0.8070 9.3985 6.0190 -9.8943 -1.4661 -1.9674 0.9360
